<svg xmlns="http://www.w3.org/2000/svg" viewBox="0 0 360 360" role="img" aria-label="cartoon avatar">
  <defs>
    <linearGradient id="bg" x1="0" x2="1" y1="0" y2="1">
      <stop offset="0" stop-color="#fff8de"/>
      <stop offset="1" stop-color="#f4e9d3"/>
    </linearGradient>
  </defs>
  <rect width="360" height="360" rx="32" fill="url(#bg)"/>
  <circle cx="180" cy="126" r="78" fill="#050505"/>
  <path d="M104 298c10-70 42-100 76-100s66 30 76 100H104Z" fill="#ed67ad" stroke="#050505" stroke-width="5"/>
  <path d="M181 202v96" stroke="#347fea" stroke-width="48"/>
  <path d="M104 294h152" stroke="#050505" stroke-width="5"/>
  <circle cx="180" cy="137" r="58" fill="#ffd1bd" stroke="#050505" stroke-width="5"/>
  <path d="M126 130c17-12 32-30 36-54 18 29 44 43 76 43-9-40-32-66-67-68-34-2-62 22-72 60 7 6 16 12 27 19Z" fill="#050505"/>
  <circle cx="155" cy="139" r="20" fill="none" stroke="#050505" stroke-width="5"/>
  <circle cx="207" cy="139" r="20" fill="none" stroke="#050505" stroke-width="5"/>
  <path d="M175 139h12" stroke="#050505" stroke-width="5"/>
  <circle cx="155" cy="141" r="5" fill="#050505"/>
  <circle cx="207" cy="141" r="5" fill="#050505"/>
  <path d="M170 166c9 9 24 9 33 0" fill="none" stroke="#050505" stroke-width="5" stroke-linecap="round"/>
  <path d="M131 117c-20 68-9 118 33 154" fill="none" stroke="#050505" stroke-width="13" stroke-linecap="round"/>
  <path d="M226 116c19 69 8 119-34 155" fill="none" stroke="#050505" stroke-width="13" stroke-linecap="round"/>
  <circle cx="116" cy="151" r="14" fill="#ffd1bd" stroke="#050505" stroke-width="5"/>
  <circle cx="244" cy="151" r="14" fill="#ffd1bd" stroke="#050505" stroke-width="5"/>
  <circle cx="151" cy="157" r="7" fill="#ff8cae" opacity=".65"/>
  <circle cx="211" cy="157" r="7" fill="#ff8cae" opacity=".65"/>
  <circle cx="180" cy="216" r="7" fill="#050505"/>
</svg>
